# AST/ASF file generated using VICON BodyLanguage
# -----------------------------------------------
:version 1.10
:name VICON
:units
  mass 1.0
  length 0.45
  angle deg
:documentation
   .ast/.asf automatically generated from VICON data using
   VICON BodyBuilder and BodyLanguage model FoxedUp or BRILLIANT.MOD
:root
   order TX TY TZ RX RY RZ
   axis XYZ
   position 0 0 0  
   orientation 0 0 0 
:bonedata
  begin
     id 1 
     name lhipjoint
     direction 0.588788 -0.725889 0.355548 
     length 2.37778 
     axis 0 0 0  XYZ
  end
  begin
     id 2 
     name lfemur
     direction 0.34202 -0.939693 0  
     length 6.86393  
     axis 0 0 20  XYZ
    dof rx ry rz
    limits (-160.0 20.0)
           (-70.0 70.0)
           (-60.0 70.0)
  end
  begin
     id 3 
     name ltibia
     direction 0.34202 -0.939693 0   
     length 7.32851   
     axis 0 0 20   XYZ
    dof rx
    limits (-10.0 170.0)
  end
  begin
     id 4 
     name lfoot
     direction 0.0626533 -0.172138 0.983078   
     length 1.98929   
     axis -90 7.62852e-016 20   XYZ
    dof rx rz
    limits (-45.0 90.0)
           (-70.0 20.0)
  end
  begin
     id 5 
     name ltoes
     direction 1.53647e-011 -4.21734e-011 1   
     length 1.00479   
     axis -90 7.62852e-016 20   XYZ
    dof rx
    limits (-90.0 20.0)
  end
  begin
     id 6 
     name rhipjoint
     direction -0.59141 -0.724168 0.354705   
     length 2.38343  
     axis 0 0 0  XYZ 
  end
  begin
     id 7 
     name rfemur
     direction -0.34202 -0.939693 0   
     length 6.95589   
     axis 0 0 -20   XYZ
    dof rx ry rz
    limits (-160.0 20.0)
           (-70.0 70.0)
           (-70.0 60.0)
  end
  begin
     id 8 
     name rtibia
     direction -0.34202 -0.939693 0   
     length 7.32327   
     axis 0 0 -20   XYZ
    dof rx
    limits (-10.0 170.0)
 end
 begin
     id 9 
     name rfoot
     direction -0.0660461 -0.18146 0.981178   
     length 1.85272  
     axis -90 -7.62852e-016 -20   XYZ
    dof rx rz
    limits (-45.0 90.0)
           (-20.0 70.0)
  end
  begin
     id 10 
     name rtoes
     direction -1.53586e-011 -4.21988e-011 1   
     length 0.93746   
     axis -90 -7.62852e-016 -20   XYZ
    dof rx
    limits (-90.0 20.0)
  end
  begin
     id 11 
     name lowerback
     direction -0.0107982 0.991059 0.13299   
     length 1.98691   
     axis 0 0 0   XYZ
    dof rx ry rz
    limits (-20.0 45.0)
           (-30.0 30.0)
           (-30.0 30.0)
  end
  begin
     id 12 
     name upperback
     direction 0.0076296 0.999916 0.0104576   
     length 1.99501   
     axis 0 0 0   XYZ
    dof rx ry rz
    limits (-20.0 45.0)
           (-30.0 30.0)
           (-30.0 30.0)
  end
  begin
     id 13 
     name thorax
     direction 0.01176 0.998615 -0.0512909   
     length 2.03144   
     axis 0 0 0   XYZ
    dof rx ry rz
    limits (-20.0 45.0)
           (-30.0 30.0)
           (-30.0 30.0)
  end
  begin
     id 14 
     name lowerneck
     direction -0.0171909 0.999644 0.0204011   
     length 1.71818   
     axis 0 0 0   XYZ
    dof rx ry rz
    limits (-20.0 45.0)
           (-30.0 30.0)
           (-30.0 30.0)
  end
  begin
     id 15 
     name upperneck
     direction 0.0250902 0.997482 -0.0663316   
     length 1.66199   
     axis 0 0 0   XYZ
    dof rx ry rz
    limits (-20.0 45.0)
           (-30.0 30.0)
           (-30.0 30.0)
  end
  begin
     id 16
     name head
     direction 0.00881535 0.99956 -0.0283365  
     length 1.81545  
     axis 0 0 0   XYZ
    dof rx ry rz
    limits (-20.0 45.0)
           (-30.0 30.0)
           (-30.0 30.0)
  end
  begin
     id 17 
     name lclavicle
     direction 0.840411 0.486876 -0.238035  
     length 3.30409  
     axis 0 0 0   XYZ
    dof ry rz
    limits (-20.0 10.0)
           (0.0 20.0)
  end
  begin
     id 18 
     name lhumerus
     direction 1 -4.48977e-011 -5.16239e-027   
     length 4.62672   
     axis 180 -30 -90   XYZ
    dof rx ry rz
    limits (-60.0 90.0)
           (-90.0 90.0)
           (-90.0 90.0)
  end
  begin
     id 19
     name lradius
     direction 1 -4.48977e-011 -8.71171e-027   
     length 3.11018   
     axis 180 -30 -90   XYZ
    dof rx
    limits (-10.0 170.0)
  end
  begin
     id 20
     name lwrist
     direction 1 -4.48912e-011 -1.03764e-026   
     length 1.55509   
     axis 9.09556e-015 90 90   XYZ
    dof ry
    limits (-180.0 0.0)
 end
  begin
     id 21 
     name lhand
     direction 1 -4.49072e-011 -2.07528e-026   
     length 0.743834   
     axis 1.3242e-014 90 90   XYZ
    dof rx rz
    limits (-90.0 90.0)
           (-45.0 45.0)
  end
  begin
     id 22 
     name lfingers
     direction 1 -4.48909e-011 -4.15056e-026   
     length 0.599698   
     axis 2.64841e-014 90 90   XYZ
    dof rx
    limits (0.0 90.0)
  end
  begin
     id 23
     name lthumb
     direction 0.707107 -6.35013e-011 0.707107   
     length 0.86105   
     axis -90 45 2.85299e-015   XYZ
    dof rx rz
    limits (-45.0 45.0)
           (-45.0 45.0)
  end
  begin
     id 24 
     name rclavicle
     direction -0.835208 0.500237 -0.228452   
     length 3.2716  
     axis 0 0 0   XYZ 
    dof ry rz
    limits (-10.0 20.0)
           (-20.0 0.0)
  end
  begin
     id 25 
     name rhumerus
     direction -1 -4.48978e-011 -5.1953e-028  
     length 4.55919   
     axis 180 30 90   XYZ
    dof rx ry rz
    limits (-90.0 60.0)
           (-90.0 90.0)
           (-90.0 90.0)
  end
  begin
     id 26 
     name rradius
     direction -1 -4.48961e-011 -5.99546e-027   
     length 3.22748   
     axis 180 30 90   XYZ
    dof rx
    limits (-10.0 170.0)
  end
  begin
     id 27 
     name rwrist
     direction -1 -4.48986e-011 -1.03764e-026   
     length 1.61374   
     axis 9.09556e-015 -90 -90   XYZ
    dof ry
    limits (-180.0 0.0)
  end
  begin
     id 28
     name rhand
     direction -1 -4.4899e-011 -2.07528e-026   
     length 0.700882   
     axis 1.3242e-014 -90 -90   XYZ
    dof rx rz
    limits (-90.0 90.0)
           (-45.0 45.0)
  end
  begin
     id 29
     name rfingers
     direction -1 -4.48991e-011 -4.15056e-026   
     length 0.565069   
     axis 2.64841e-014 -90 -90   XYZ
    dof rx
    limits (0.0 90.0)
  end
  begin
     id 30
     name rthumb
     direction -0.707107 -6.34804e-011 0.707107   
     length 0.811329   
     axis -90 -45 -2.85299e-015   XYZ
    dof rx rz
    limits (-45.0 45.0)
           (-45.0 45.0)
  end
:hierarchy
  begin
    root lhipjoint rhipjoint lowerback
    lhipjoint lfemur
    lfemur ltibia
    ltibia lfoot
    lfoot ltoes
    rhipjoint rfemur
    rfemur rtibia
    rtibia rfoot
    rfoot rtoes
    lowerback upperback
    upperback thorax
    thorax lowerneck lclavicle rclavicle
    lowerneck upperneck
    upperneck head
    lclavicle lhumerus
    lhumerus lradius
    lradius lwrist
    lwrist lhand lthumb
    lhand lfingers
    rclavicle rhumerus
    rhumerus rradius
    rradius rwrist
    rwrist rhand rthumb
    rhand rfingers
  end

#!OML:ASF F:\VICON\USERDATA\INSTALL\SteveWalk\SteveWalk.ASF
:FULLY-SPECIFIED
:DEGREES
64
root -0.178252 16.2964 -28.5002 16.4146 3.71901 2.90558
lowerback -13.4308 -3.01909 -4.72588
upperback -4.36665 -3.37073 -0.00584263
thorax 3.18305 -1.66839 2.11222
lowerneck -2.40798 -3.90222 -1.23348
upperneck 7.88279 -5.29391 1.61219
head 3.01825 -2.61247 0.551689
rclavicle -8.83815e-015 -9.24349e-015
rhumerus -84.6745 -42.6419 -12.1577
rradius 11.0546
rwrist 50.7011
rhand -16.2463 -34.679
rfingers 7.12502
rthumb 9.96254 -64.4233
lclavicle -8.83815e-015 -9.24349e-015
lhumerus -22.5955 -5.49253 82.9906
lradius 45.4946
lwrist 9.77382
lhand -21.3564 -17.5657
lfingers 7.12502
lthumb 5.03026 12.3546
rfemur -48.2314 -4.49454 20.1764
rtibia 27.3473
rfoot -11.0085 -3.15972
rtoes -12.9901
lfemur -12.2009 6.785 -26.0006
ltibia 25.7718
lfoot -25.228 -13.8141
ltoes 1.25432
65
root -0.181216 16.2727 -28.2856 16.3962 4.30842 2.85652
lowerback -13.4111 -3.1482 -4.6345
upperback -4.26762 -3.55491 0.0773166
thorax 3.29029 -1.76289 2.11466
lowerneck -2.46468 -3.92073 -1.11783
upperneck 7.84001 -5.31928 1.55934
head 3.00902 -2.62321 0.513285
rclavicle 1.75148e-014 1.88348e-014
rhumerus -84.2399 -41.9764 -13.008
rradius 11.1606
rwrist 48.7014
rhand -17.1107 -32.7848
rfingers 7.12502
rthumb 9.12849 -62.5672
lclavicle 1.75148e-014 1.88348e-014
lhumerus -21.7866 -6.01098 82.8303
lradius 46.8522
lwrist 9.71208
lhand -21.6592 -17.6667
lfingers 7.12502
lthumb 4.73781 12.2603
rfemur -48.1857 -5.01805 20.5022
rtibia 24.4771
rfoot -10.9128 -2.14289
rtoes -14.7301
lfemur -10.8338 6.61 -25.6039
ltibia 24.7046
lfoot -25.0265 -14.1321
ltoes 0.519616
66
root -0.180754 16.2594 -28.0683 16.4498 4.92985 3.05809
lowerback -13.5552 -3.32091 -4.7205
upperback -4.16745 -3.76011 0.0741619
thorax 3.49342 -1.86929 2.11381
lowerneck -2.47569 -4.01598 -0.90064
upperneck 8.02658 -5.44322 1.32685
head 3.0612 -2.68529 0.394937
rclavicle 2.77926e-014 1.28216e-014
rhumerus -84.1449 -41.4186 -13.4281
rradius 11.2998
rwrist 47.1209
rhand -17.2521 -32.0279
rfingers 7.12502
rthumb 8.99204 -61.8162
lclavicle 2.77926e-014 1.28216e-014
lhumerus -20.896 -6.42754 82.6457
lradius 47.9176
lwrist 9.65655
lhand -21.895 -17.9363
lfingers 7.12502
lthumb 4.51021 11.9957
rfemur -48.2621 -5.85741 20.7146
rtibia 22.0352
rfoot -11.0858 -0.752576
rtoes -15.2316
lfemur -9.4571 6.19729 -25.4697
ltibia 23.5826
lfoot -24.6914 -14.4186
ltoes -0.263281
67
root -0.178341 16.2524 -27.8467 16.5353 5.521 3.46464
lowerback -13.9518 -3.54921 -5.03688
upperback -3.8948 -3.98566 0.0428704
thorax 4.02982 -1.995 2.18748
lowerneck -2.31641 -3.79631 -0.906291
upperneck 7.09375 -5.15806 1.66789
head 2.72284 -2.53797 0.527813
rclavicle -2.23633e-014 -2.55935e-015
rhumerus -84.6163 -41.2614 -12.8389
rradius 11.3811
rwrist 46.6309
rhand -16.3221 -33.7915
rfingers 7.12502
rthumb 9.88945 -63.5392
lclavicle -2.23633e-014 -2.55935e-015
lhumerus -19.8204 -6.69099 82.5074
lradius 48.93
lwrist 9.8466
lhand -22.0998 -18.3427
lfingers 7.12502
lthumb 4.31242 11.5934
rfemur -48.4151 -6.87847 20.7802
rtibia 19.9807
rfoot -11.2549 1.09342
rtoes -12.4159
lfemur -8.0597 5.61803 -25.5617
ltibia 22.4964
lfoot -24.3164 -14.6805
ltoes -0.888144
68
root -0.172891 16.2355 -27.6234 16.602 6.01925 3.63913
lowerback -13.4712 -3.66549 -5.08099
upperback -4.21441 -4.174 0.114946
thorax 3.45543 -2.07279 2.29153
lowerneck -2.28891 -3.68053 -0.800434
upperneck 7.30457 -4.99655 1.45113
head 2.77606 -2.46077 0.444501
rclavicle -4.20314e-014 -3.23343e-014
rhumerus -83.9106 -39.9334 -14.2223
rradius 11.5288
rwrist 44.7125
rhand -15.5086 -35.0711
rfingers 7.12502
rthumb 10.6742 -64.78
lclavicle -4.20314e-014 -3.23343e-014
lhumerus -19.7475 -7.00477 82.6581
lradius 50.092
lwrist 10.0221
lhand -22.4356 -18.6358
lfingers 7.12502
lthumb 3.98815 11.3066
rfemur -48.755 -7.9037 21.2646
rtibia 18.4478
rfoot -11.4797 2.96036
rtoes -10.0231
lfemur -6.69116 5.03669 -25.4545
ltibia 21.4514
lfoot -23.8664 -14.8251
ltoes -1.56476
69
root -0.168886 16.2062 -27.4032 16.7512 6.49593 3.6581
lowerback -13.877 -3.80242 -4.96572
upperback -4.06631 -4.34515 0.200628
thorax 3.84343 -2.16604 2.2574
lowerneck -2.54522 -3.58986 -0.549686
upperneck 7.50746 -4.86516 1.11247
head 2.87265 -2.39714 0.29097
rclavicle 2.54173e-014 4.44781e-015
rhumerus -83.9231 -39.6439 -14.2345
rradius 11.5058
rwrist 44.1892
rhand -15.3179 -34.7511
rfingers 7.12502
rthumb 10.8581 -64.4504
lclavicle 2.54173e-014 4.44781e-015
lhumerus -19.0455 -7.27889 82.609
lradius 51.1341
lwrist 10.2237
lhand -22.7561 -18.527
lfingers 7.12502
lthumb 3.67862 11.421
rfemur -49.4949 -9.07816 22.3278
rtibia 17.302
rfoot -11.7848 4.49034
rtoes -14.3571
lfemur -5.54731 4.61961 -25.1728
ltibia 20.5212
lfoot -23.4361 -15.0405
ltoes -3.80531
70
root -0.173096 16.1742 -27.1865 17.0014 6.89519 3.89903
lowerback -13.9502 -3.95636 -5.19381
upperback -4.208 -4.5187 0.281829
thorax 3.76981 -2.24834 2.4388
lowerneck -2.42074 -3.52137 -0.413789
upperneck 7.53514 -4.76086 0.842482
head 2.8458 -2.35079 0.187407
rclavicle 3.37623e-014 2.9122e-014
rhumerus -85.0137 -39.2705 -12.4705
rradius 11.3983
rwrist 44.8865
rhand -15.3298 -34.9269
rfingers 7.12502
rthumb 10.8466 -64.6268
lclavicle 3.37623e-014 2.9122e-014
lhumerus -18.9284 -7.42152 82.6169
lradius 52.3083
lwrist 10.3324
lhand -22.9302 -17.7232
lfingers 7.12502
lthumb 3.51051 12.2276
rfemur -49.9655 -9.44138 22.442
rtibia 16.5307
rfoot -11.9868 5.35413
rtoes -18.4185
lfemur -4.61184 4.16106 -25.1018
ltibia 19.7696
lfoot -23.2266 -14.9699
ltoes -8.22304
71
root -0.171438 16.1517 -26.9597 16.965 7.33921 3.96463
lowerback -13.8815 -4.05223 -5.12017
upperback -4.19878 -4.66278 0.360193
thorax 3.75564 -2.31936 2.45707
lowerneck -2.53946 -3.44564 -0.29143
upperneck 7.61193 -4.64985 0.619558
head 2.88336 -2.29876 0.0959046
rclavicle -1.46417e-014 3.37934e-015
rhumerus -86.099 -39.0199 -10.6911
rradius 11.3278
rwrist 45.3646
rhand -15.3194 -35.2516
rfingers 7.12502
rthumb 10.8567 -64.951
lclavicle -1.46417e-014 3.37934e-015
lhumerus -18.551 -7.15929 82.4936
lradius 53.0584
lwrist 10.9124
lhand -21.7513 -19.6056
lfingers 7.12502
lthumb 4.64892 10.3234
rfemur -50.3689 -10.0767 22.9024
rtibia 16.451
rfoot -12.2188 6.8102
rtoes -19.0118
lfemur -3.23425 3.40406 -24.8417
ltibia 18.8789
lfoot -22.8205 -14.597
ltoes -10.9568
72
root -0.159655 16.1239 -26.7216 16.5234 7.73898 3.74292
lowerback -13.7869 -4.08177 -4.6103
upperback -3.90165 -4.77662 0.458897
thorax 3.99731 -2.38347 2.24929
lowerneck -3.04962 -3.26116 -0.254165
upperneck 7.91713 -4.39664 0.478837
head 3.07706 -2.17387 0.0396508
rclavicle 1.55797e-014 1.20265e-014
rhumerus -86.1784 -38.9065 -10.4441
rradius 11.3752
rwrist 44.8241
rhand -15.2754 -34.815
rfingers 7.12502
rthumb 10.8992 -64.5121
lclavicle 1.55797e-014 1.20265e-014
lhumerus -18.0276 -7.25874 82.4263
lradius 53.8487
lwrist 11
lhand -21.8172 -21.1876
lfingers 7.12502
lthumb 4.5853 8.74278
rfemur -50.1669 -10.6635 23.5239
rtibia 16.9027
rfoot -12.8023 8.15743
rtoes -16.4366
lfemur -1.44698 2.76628 -24.3436
ltibia 18.0546
lfoot -22.6934 -13.6536
ltoes -14.7095
73
root -0.163732 16.1047 -26.4513 15.8943 9.26349 3.89673
lowerback -13.6014 -4.59711 -4.66637
upperback -3.59799 -5.4621 0.616394
thorax 4.28993 -2.73239 2.31688
lowerneck -3.20201 -3.04245 -0.346842
upperneck 8.16059 -4.08629 0.314091
head 3.18616 -2.02736 0.0084081
rclavicle -3.50917e-014 8.74653e-015
rhumerus -85.3201 -38.3943 -11.7603
rradius 11.4931
rwrist 43.5759
rhand -15.205 -34.6283
rfingers 7.12502
rthumb 10.967 -64.3218
lclavicle -3.50917e-014 8.74653e-015
lhumerus -17.9975 -7.31918 82.4775
lradius 54.6918
lwrist 10.8583
lhand -22.3926 -21.6257
lfingers 7.12502
lthumb 4.02964 8.31597
rfemur -49.0207 -10.2256 22.1621
rtibia 17.6159
rfoot -13.6329 5.88004
rtoes -17.8735
lfemur 0.457372 1.86002 -23.6842
ltibia 17.474
lfoot -22.8208 -13.5458
ltoes -18.8835
74
root -0.160182 16.0794 -26.2034 15.7202 9.73785 3.70348
lowerback -13.1778 -4.68802 -4.26511
upperback -3.92053 -5.67074 0.78413
thorax 3.71687 -2.82116 2.2783
lowerneck -2.76179 -2.86706 -0.334315
upperneck 8.37634 -3.82413 -0.0579841
head 3.16671 -1.91112 -0.09842
rclavicle -6.68351e-014 1.78906e-015
rhumerus -84.7164 -37.3126 -12.8686
rradius 11.5631
rwrist 42.6932
rhand -15.0503 -35.1795
rfingers 7.12502
rthumb 11.1162 -64.8651
lclavicle -6.68351e-014 1.78906e-015
lhumerus -18.7408 -7.17429 82.6428
lradius 55.4692
lwrist 10.8225
lhand -22.5924 -21.7001
lfingers 7.12502
lthumb 3.83674 8.24507
rfemur -48.4886 -9.23319 21.4962
rtibia 18.3057
rfoot -13.7316 4.51044
rtoes -18.0032
lfemur 1.41765 1.14863 -23.1334
ltibia 17.5638
lfoot -22.3507 -13.3831
ltoes -21.2517
